<svg xmlns="http://www.w3.org/2000/svg" xmlns:xlink="http://www.w3.org/1999/xlink" xml:space="preserve" width="525.2" height="104.88"><defs><path id="a" d="M0 0h525.2v104.88H0z"/></defs><clipPath id="b"><use xlink:href="#a" overflow="visible"/></clipPath><path fill="#231F20" d="M39.91 104.88c-9.427 0-17.517-1.47-24.27-4.41a52.198 52.198 0 0 1-14.22-9 4.278 4.278 0 0 1-.62-5.689L5.72 79a4.25 4.25 0 0 1 6.21-.73 53.192 53.192 0 0 0 10 6.62 40.001 40.001 0 0 0 18.73 4.19A31.254 31.254 0 0 0 50 87.83a19.004 19.004 0 0 0 6.32-3.19 12.606 12.606 0 0 0 3.57-4.42 11.71 11.71 0 0 0 1.14-5 8.807 8.807 0 0 0-1.9-5.71 15.894 15.894 0 0 0-5.1-4 40.261 40.261 0 0 0-7.38-2.9 383.754 383.754 0 0 0-8.75-2.43 328.497 328.497 0 0 1-12.6-3.479 45.672 45.672 0 0 1-11.64-5.25 27.302 27.302 0 0 1-8.53-8.52c-2.18-3.453-3.27-7.87-3.27-13.25A26.002 26.002 0 0 1 4.52 18a28.671 28.671 0 0 1 7.54-9.4A36.247 36.247 0 0 1 23.7 2.28 47.343 47.343 0 0 1 38.85 0a59.442 59.442 0 0 1 21.39 3.65 50.445 50.445 0 0 1 13.49 7.71 4.28 4.28 0 0 1 .74 5.95l-5 6.47a4.26 4.26 0 0 1-5.981.725l-.019-.015a36.755 36.755 0 0 0-10.37-5.84 45.4 45.4 0 0 0-15.75-2.82c-5.25 0-9.43 1.13-12.51 3.39a11.572 11.572 0 0 0-4.65 8.28A7.718 7.718 0 0 0 22 33.57a15.134 15.134 0 0 0 4.87 3.5 51.044 51.044 0 0 0 7.08 2.66c2.667.813 5.533 1.573 8.6 2.28 4.16 1.12 8.423 2.34 12.79 3.66a47.089 47.089 0 0 1 11.87 5.4 27.718 27.718 0 0 1 8.68 8.831c2.227 3.6 3.343 8.14 3.35 13.619a31.541 31.541 0 0 1-2.29 12 26.983 26.983 0 0 1-7.07 10 34.351 34.351 0 0 1-12.26 6.851 55.676 55.676 0 0 1-17.71 2.509M195.77 100.27l-.68-1.51L152.3 3.62A2.35 2.35 0 0 0 149.83 2h-14a2.34 2.34 0 0 0-2.46 1.62L90.59 98.75l-.69 1.52a3.357 3.357 0 0 0-.31 1.28c0 .88.6 1.33 1.86 1.33h14.25a4.252 4.252 0 0 0 3.9-2.57l9-20.79h48.47l9 20.79a4.238 4.238 0 0 0 3.9 2.57h14.24c1.27 0 1.89-.45 1.87-1.33a3.242 3.242 0 0 0-.31-1.28M125.5 63.55l17.34-40.27 17.34 40.27H125.5zM296.94 3.29c0-.85-.62-1.29-1.9-1.29h-14.71a4.26 4.26 0 0 0-3.87 2.49l-34.23 74.92L208 4.49A4.261 4.261 0 0 0 204.14 2h-14.721c-1.279 0-1.899.44-1.89 1.29.006.457.111.908.31 1.32l5.69 12.12L233 101.26a2.49 2.49 0 0 0 2.47 1.62H249a2.489 2.489 0 0 0 2.46-1.62l39.44-84.55 5.68-12.1c.212-.41.335-.86.36-1.32M395.65 90.18c-10.127 9.8-23.127 14.701-39 14.701-15.874 0-28.874-4.901-39-14.701-10.127-9.799-15.193-22.38-15.2-37.739-.007-15.361 5.06-27.94 15.2-37.741C327.823 4.9 340.833 0 356.68 0s28.847 4.9 39 14.699c10.127 9.801 15.19 22.38 15.19 37.741 0 15.36-5.073 27.941-15.22 37.74M331 78.569c6.613 6.761 15.16 10.137 25.64 10.131 10.48-.007 19.04-3.384 25.681-10.131 6.626-6.746 9.943-15.456 9.949-26.129.007-10.674-3.31-19.397-9.949-26.17-6.667-6.767-15.227-10.154-25.681-10.16-10.453-.007-19 3.379-25.64 10.16-6.613 6.779-9.92 15.503-9.92 26.17 0 10.666 3.307 19.376 9.92 26.129M524.76 100.27 490.08 53l33.84-48.391c1.033-1.74.587-2.61-1.34-2.61h-17.51a3.25 3.25 0 0 0-2.75 1.34l-24.57 35.53 9.86 14.2-9.74 13 26.42 35.561a2.93 2.93 0 0 0 2.61 1.27h16.46a1.53 1.53 0 0 0 1.4-2.608v-.022zM473.61 53.07l-9.86-14.19-24.59-35.4A3.131 3.131 0 0 0 436.42 2h-17.66c-2 0-2.41.87-1.34 2.61l34 48.25-34.68 47.41c-.471.801-.561 1.44-.28 1.9a1.81 1.81 0 0 0 1.69.71h16.46a2.92 2.92 0 0 0 2.6-1.27L463.85 66l9.76-12.93z" clip-path="url(#b)"/></svg>